<?xml version="1.0" encoding="iso-8859-1"?>
<!-- Generator: Adobe Illustrator 19.0.0, SVG Export Plug-In . SVG Version: 6.00 Build 0)  -->
<svg xmlns="http://www.w3.org/2000/svg" xmlns:xlink="http://www.w3.org/1999/xlink" version="1.1" id="Layer_1" x="0px" y="0px" viewBox="0 0 512 512" style="enable-background:new 0 0 512 512;" xml:space="preserve" width="512" height="512">
<g id="XMLID_537_">
	<g id="XMLID_538_">
		<path id="XMLID_1154_" style="fill:#DAD0CD;" d="M56.654,211.532h48.976v29.895H56.654c-14.755,0-26.759,12.004-26.759,26.759    v26.482c0,14.755,12.004,26.759,26.759,26.759h48.976v29.895H56.654C25.415,351.323,0,325.908,0,294.668l0-26.482    C0,236.947,25.415,211.532,56.654,211.532z"/>
		<path id="XMLID_1153_" style="fill:#F1EDED;" d="M103.935,194.454v168.651c0,11.363,2.998,22.015,8.241,31.225    c10.868,19.12,31.421,32.008,54.981,32.008h246.45c23.56,0,44.112-12.888,54.981-32.008c5.244-9.21,8.241-19.862,8.241-31.225    V194.454c0-6.604-5.357-11.961-11.96-11.961H115.895C109.292,182.493,103.935,187.85,103.935,194.454z"/>
		<path id="XMLID_1152_" style="fill:#DAD0CD;" d="M112.176,394.329c10.868,19.12,31.421,32.008,54.981,32.008h246.45    c23.56,0,44.112-12.888,54.981-32.008H112.176z"/>
		<g id="XMLID_539_">
			<path id="XMLID_540_" style="fill:#A86552;" d="M507.704,367.41c0,9.673-1.648,18.821-4.574,26.919     c-7.149,19.8-21.933,33.399-39.013,33.399c-7.005,0-13.619-2.287-19.481-6.356c-14.309-9.89-24.117-30.329-24.127-53.961     c0.01-11.013,2.143-21.335,5.862-30.225c7.551-17.997,21.624-30.102,37.736-30.102c21.943,0,40.126,22.448,43.154,51.664     C507.55,361.579,507.714,364.474,507.704,367.41z"/>
			<path id="XMLID_541_" style="fill:#915040;" d="M503.13,394.328c-7.149,19.8-21.933,33.399-39.013,33.399     c-7.005,0-13.619-2.287-19.481-6.356c-14.309-9.89-24.117-30.329-24.127-53.961c0.01-11.013,2.143-21.335,5.862-30.225     c15.453,16.905,23.169,38.292,20.583,57.144H503.13z"/>
			<g id="XMLID_542_">
				<path id="XMLID_543_" style="fill:#915040;" d="M471.833,308.034v118.749c-2.503,0.628-5.079,0.948-7.716,0.948      c-2.637,0-5.223-0.319-7.737-0.948V308.045c2.503-0.628,5.089-0.958,7.726-0.958      C466.744,307.086,469.32,307.406,471.833,308.034z"/>
			</g>
		</g>
		<g id="XMLID_544_">
			<path id="XMLID_1146_" style="fill:#BE7560;" d="M352.137,394.329c1.669,2.05,3.461,4.059,5.398,5.985     c21.891,21.891,52.467,26.816,68.291,10.992c4.605-4.605,7.448-10.456,8.623-16.977c2.905-15.906-4.079-35.788-19.604-51.324     c-21.902-21.891-52.477-26.816-68.301-10.992C332.12,346.436,334.922,373.139,352.137,394.329z"/>
			<path id="XMLID_1145_" style="fill:#A86552;" d="M352.137,394.329c1.669,2.05,3.461,4.059,5.398,5.985     c21.891,21.891,52.467,26.816,68.291,10.992c4.605-4.605,7.448-10.456,8.623-16.977H352.137z"/>
			<g id="XMLID_545_">
				<path id="XMLID_546_" style="fill:#915040;" d="M430.564,405.119c-1.288,2.246-2.874,4.327-4.739,6.191      s-3.935,3.441-6.181,4.739l-77.84-77.84c1.288-2.246,2.864-4.316,4.739-6.191s3.946-3.451,6.191-4.739L430.564,405.119z"/>
			</g>
		</g>
		<path id="XMLID_1141_" style="fill:#F1EDED;" d="M92.681,457.075h395.402c13.209,0,23.916-10.708,23.916-23.916v-19.29    c0-3.963-3.212-7.175-7.175-7.175H75.94c-3.963,0-7.175,3.212-7.175,7.175v19.29C68.765,446.368,79.473,457.075,92.681,457.075z"/>
	</g>
	<g id="XMLID_547_">
		<g id="XMLID_548_">
			<path id="XMLID_549_" style="fill:#77DFFF;" d="M231.134,155.238c-1.977,0-3.955-0.755-5.463-2.263     c-8.991-8.991-8.991-23.621,0-32.612l41.492-41.493c2.966-2.966,2.966-7.791,0-10.757c-3.018-3.018-3.018-7.909,0-10.928     c3.017-3.016,7.909-3.016,10.927,0c8.991,8.991,8.991,23.621,0,32.612l-41.492,41.493c-1.437,1.437-2.228,3.346-2.228,5.378     s0.791,3.942,2.228,5.378c3.018,3.018,3.018,7.909,0,10.928C235.089,154.484,233.111,155.238,231.134,155.238z"/>
		</g>
		<g id="XMLID_550_">
			<path id="XMLID_551_" style="fill:#77DFFF;" d="M283.268,155.238c-1.977,0-3.955-0.755-5.463-2.263     c-8.991-8.991-8.991-23.621,0-32.612l41.492-41.493c1.437-1.437,2.228-3.347,2.228-5.378c0-2.031-0.791-3.942-2.228-5.378     c-3.017-3.017-3.018-7.909-0.001-10.927c3.017-3.018,7.909-3.017,10.927-0.001c4.356,4.355,6.755,10.146,6.755,16.306     c0,6.16-2.399,11.951-6.755,16.306l-41.492,41.493c-2.966,2.966-2.966,7.791,0,10.757c3.018,3.018,3.018,7.909,0,10.928     C287.223,154.484,285.245,155.238,283.268,155.238z"/>
		</g>
		<g id="XMLID_552_">
			<path id="XMLID_553_" style="fill:#77DFFF;" d="M335.402,155.238c-1.977,0-3.955-0.755-5.463-2.263     c-8.991-8.991-8.991-23.621,0-32.612l41.492-41.493c2.966-2.966,2.966-7.791,0-10.757c-3.018-3.018-3.018-7.909,0-10.928     c3.017-3.016,7.909-3.016,10.927,0c8.991,8.991,8.991,23.621,0,32.612l-41.492,41.493c-2.966,2.966-2.966,7.791,0,10.757     c3.018,3.018,3.018,7.909,0,10.928C339.357,154.484,337.38,155.238,335.402,155.238z"/>
		</g>
	</g>
</g>















</svg>
