<svg id="Layer_1" data-name="Layer 1" xmlns="http://www.w3.org/2000/svg" xmlns:xlink="http://www.w3.org/1999/xlink" viewBox="0 0 312 312"><defs><style>.cls-1{fill:none;}.cls-2{fill:#fff;}.cls-3{fill:#ecbc9d;}.cls-4{fill:#efdbd0;}.cls-5{fill:#6d4b40;}.cls-6{clip-path:url(#clip-path);}</style><clipPath id="clip-path"><rect class="cls-1" width="312" height="312"/></clipPath></defs><title>004-coffee-cream</title><path class="cls-2" d="M180.43,98.1l-.94-.37-.36.93c-6.78,17.64-29.77,19-50.08,20.3-14.15.87-28.79,1.77-36.61,7.76a25.66,25.66,0,0,0-8.71,15.92l-.25,1.2H228.23l-.33-1.25c-6.72-25.79-35.44-39.71-47.47-44.49Zm0,0"/><path class="cls-3" d="M68.85,261.29a41.59,41.59,0,0,0,41.54,41.54h91.22a41.59,41.59,0,0,0,41.54-41.54V151.82H68.85Zm0,0"/><path class="cls-4" d="M68,244s101,21,177,11V215s-62-12-104,0c0,0-40,20-73,8Z"/><path class="cls-5" d="M109.94,62.43a5,5,0,1,0,6.89,7.22C123.48,63.29,132.77,47,120.22,31c-9.72-12.42-1.6-20.52-.6-21.43A5,5,0,0,0,113,2.11c-5.75,5.06-13.27,18.89-.63,35,9.9,12.66-1.15,24-2.43,25.28Zm0,0"/><path class="cls-5" d="M150,62.43a5,5,0,0,0,6.89,7.22C163.53,63.29,172.81,47,160.26,31c-9.72-12.42-1.59-20.52-.59-21.43a5,5,0,1,0-6.62-7.46c-5.75,5.06-13.27,18.89-.64,35,9.9,12.66-1.15,24-2.43,25.28Zm0,0"/><g class="cls-6"><path class="cls-5" d="M190,62.43a5,5,0,0,0,6.89,7.22C203.57,63.29,212.85,47,200.3,31c-9.72-12.42-1.59-20.52-.59-21.43a5,5,0,0,0-6.63-7.46c-5.74,5.06-13.26,18.89-.63,35,9.9,12.66-1.15,24-2.42,25.28Zm0,0"/><path class="cls-5" d="M307,302.36H230.9a50.5,50.5,0,0,0,20.63-33.75,53.76,53.76,0,0,0,.61-107.11V147.83a5,5,0,0,0-5-5h-10c-8.08-39-56.88-54.46-59-55.12a5,5,0,0,0-6.39,3.91C169.19,106.4,153,108.49,128.51,110c-15.51,1-31.55,1.94-41.54,9.6a35.14,35.14,0,0,0-12.44,23.25H64.86a5,5,0,0,0-5,5V261.29a50.47,50.47,0,0,0,21.22,41.09H5a5,5,0,0,0,0,10H307a5,5,0,1,0,0-10ZM291,215a43.9,43.9,0,0,1-38.82,43.51v-87A43.89,43.89,0,0,1,291,215ZM93.05,127.52c7.57-5.82,22.07-6.7,36.08-7.59,20.7-1.26,43.92-2.69,50.93-20.92,11.54,4.59,40.24,18.35,46.88,43.82H84.71a24.63,24.63,0,0,1,8.34-15.31ZM69.84,261.29V152.82H242.16V261.29a40.58,40.58,0,0,1-40.54,40.54H110.39a40.58,40.58,0,0,1-40.55-40.54Zm0,0"/></g></svg>